<?xml version="1.0" encoding="utf-8"?>
<!-- Generator: Adobe Illustrator 24.0.1, SVG Export Plug-In . SVG Version: 6.00 Build 0)  -->
<svg version="1.1" id="Layer_1" xmlns="http://www.w3.org/2000/svg" xmlns:xlink="http://www.w3.org/1999/xlink" x="0px" y="0px"
	 viewBox="0 0 142.79 115" style="enable-background:new 0 0 142.79 115;" xml:space="preserve">
<style type="text/css">
	.st0{fill:#12103E;}
</style>
<path class="st0" d="M4.1,25.64l3.37,0.6c0.24-1.35,0.59-2.77,1.05-4.25l-1.1-2.24l-2.09,0.99C4.78,22.43,4.38,24.06,4.1,25.64z
	 M7.73,37.15l-3.32,0.84c0.63,2.5,1.59,4.75,2.74,6.75l2.97-1.71C9.12,41.28,8.28,39.32,7.73,37.15z M7.01,31.23
	c0-0.87,0.04-1.78,0.14-2.71l-3.4-0.34c-0.1,1.04-0.15,2.06-0.15,3.05c0,1.46,0.11,2.86,0.31,4.2l3.38-0.51
	C7.11,33.75,7.01,32.52,7.01,31.23z M15.65,49.77c-1.5-1.35-2.99-2.95-4.3-4.81l-2.8,1.97c1.48,2.1,3.15,3.89,4.81,5.38L15.65,49.77
	L15.65,49.77z M142.79,32.96l-11.98-5.94l8.14-15.98l-17.76,2.48l-1.7-13.26l-12.07,14.83L102.5,4.22L91.07,27.34l0.55,0.77
	l3.64,5.1l8.6-12.43l1.86,5.36l9.02-9.33l-0.37,7l11.2-3.25l-6.72,9.53l6.74,1.93l-11.76,5.48l4.46,3.51l-14.55,4.08l3.68,5.17
	l0.51,0.71l25.58-3.26l-8.67-8.19L142.79,32.96z M104.07,51.47l-3.84-5.39l-7.04-9.87l-3.84-5.39l-0.51-0.72
	c0,0-42.96,12.09-51.86,18.43c-1.36,0.97-2.61,2.04-3.75,3.19l-1.55-0.86l-1.56-0.86l-4.69-2.58l-3.68,6.69
	c-1.21-0.68-2.72-1.63-4.3-2.87l-2.1,2.7c1.76,1.37,3.42,2.41,4.76,3.16l-3.46,6.29l5.38,2.96l1.59,0.88l1.59,0.87
	c-0.93,6.96,0.68,14.27,5.07,20.44c1.61,2.25,3.48,4.19,5.55,5.83h-6.96v3.9H41.1c-0.02-0.2-0.03-0.4-0.05-0.6
	c-0.03-0.45-0.05-0.9-0.05-1.35c0-0.66,0.03-1.31,0.09-1.95c0.99-11.26,10.47-20.13,21.99-20.13c4.4,0,8.49,1.3,11.94,3.52
	c2.42,1.56,4.51,3.58,6.16,5.93c0.34,0.49,0.67,0.99,0.97,1.51c0.31,0.53,0.61,1.08,0.87,1.64c1.37,2.87,2.14,6.08,2.14,9.47
	c0,0.65-0.03,1.3-0.09,1.94h9.22v-20.5h-8.39c9.35-12.03,18.71-25.52,18.71-25.52L104.07,51.47z M79.8,88.04
	c-0.27-0.54-0.57-1.07-0.89-1.59c-2.97-4.75-8.03-8.07-13.88-8.67c-0.64-0.07-1.28-0.1-1.94-0.1c-0.65,0-1.3,0.03-1.94,0.1
	c-2.47,0.26-4.8,0.99-6.89,2.12c-5.31,2.86-9.08,8.21-9.73,14.49c-0.07,0.64-0.1,1.29-0.1,1.95c0,0.66,0.04,1.31,0.1,1.95
	c0.03,0.29,0.07,0.57,0.11,0.85c0.1,0.65,0.23,1.29,0.39,1.91c0.17,0.67,0.39,1.31,0.63,1.95c2.68,7.01,9.47,11.99,17.43,11.99
	c9.65,0,17.59-7.33,18.56-16.72c0.07-0.64,0.1-1.28,0.1-1.94c0-2.31-0.42-4.52-1.19-6.56C80.34,89.19,80.08,88.61,79.8,88.04z
	 M65.05,82.29c2.46,0.34,4.71,1.3,6.6,2.73l-5.22,5.22c-0.43-0.24-0.9-0.43-1.38-0.57V82.29z M61.14,82.29v7.38
	c-0.48,0.14-0.95,0.33-1.38,0.57l-5.22-5.22C56.42,83.59,58.68,82.63,61.14,82.29z M51.77,87.79l2.49,2.49L56.99,93
	c-0.24,0.43-0.43,0.9-0.57,1.38h-7.38C49.38,91.93,50.34,89.67,51.77,87.79z M51.77,104.89c-0.24-0.31-0.46-0.64-0.67-0.98
	c-0.37-0.58-0.69-1.18-0.97-1.81c-0.26-0.59-0.48-1.2-0.66-1.82c-0.19-0.64-0.33-1.31-0.42-1.99h7.38c0.14,0.48,0.33,0.95,0.57,1.38
	l-4.33,4.33L51.77,104.89z M61.14,110.39c-2.46-0.34-4.71-1.3-6.6-2.73l4.01-4.01l1.21-1.21c0.43,0.24,0.9,0.43,1.38,0.57V110.39z
	 M63.09,99.87c-0.24,0-0.47-0.02-0.7-0.07c-0.31-0.06-0.6-0.17-0.88-0.31c-0.13-0.06-0.26-0.13-0.38-0.21
	c-0.39-0.26-0.73-0.6-0.99-0.99c0,0,0,0,0,0c0,0,0-0.01-0.01-0.01c-0.24-0.37-0.42-0.79-0.51-1.24c-0.05-0.23-0.07-0.46-0.07-0.7
	c0-0.24,0.02-0.47,0.07-0.7c0.09-0.46,0.27-0.88,0.52-1.25c0,0,0,0,0,0c0.26-0.39,0.6-0.73,0.99-0.99c0.37-0.25,0.8-0.43,1.26-0.52
	c0.23-0.05,0.46-0.07,0.7-0.07c0.24,0,0.47,0.02,0.7,0.07c0.46,0.09,0.88,0.27,1.26,0.52c0.39,0.26,0.73,0.6,0.99,0.99
	c0.25,0.37,0.43,0.8,0.52,1.26c0.05,0.23,0.07,0.46,0.07,0.7s-0.02,0.47-0.07,0.7c-0.04,0.2-0.1,0.39-0.17,0.57
	c-0.09,0.24-0.21,0.46-0.34,0.67c0,0.01-0.01,0.01-0.01,0.02c-0.26,0.39-0.6,0.73-0.99,0.99c-0.37,0.25-0.8,0.43-1.26,0.52
	C63.56,99.85,63.33,99.87,63.09,99.87z M65.05,110.39v-7.38c0.48-0.14,0.95-0.33,1.38-0.57l5.22,5.22
	C69.76,109.09,67.5,110.05,65.05,110.39z M74.41,104.89l-5.22-5.22c0.24-0.43,0.43-0.9,0.57-1.38h7.38
	C76.8,100.75,75.84,103.01,74.41,104.89z M69.76,94.38c-0.14-0.48-0.33-0.95-0.57-1.38l5.22-5.22c0.53,0.7,0.99,1.44,1.38,2.23
	c0.28,0.56,0.52,1.14,0.72,1.73c0.22,0.63,0.39,1.28,0.51,1.95c0.04,0.23,0.08,0.46,0.11,0.69H69.76z M5.06,13.66l-1.25,5.09
	l4.74-2.23l2.31,4.7l2.19-4.76l4.79,2.12l-1.38-5.05l5.03-1.46l-4.3-2.99l2.92-4.35l-5.22,0.48L14.33,0l-3.69,3.72L6.87,0.09
	L6.43,5.31L1.21,4.96l3.02,4.28L0,12.32L5.06,13.66z"/>
</svg>
